<svg xmlns="http://www.w3.org/2000/svg" viewBox="0 0 34 45.02" aria-hidden="true">
  <polygon fill="#fff" points="25.68 20.45 13.05 20.14 17.43 24.77 25.68 24.57 25.68 20.45"/>
  <polygon fill="#fff" points="23.75 31.46 25.68 31.24 25.68 27.29 20.12 27.6 23.75 31.46"/>
  <polygon fill="#fff" points="0 33.94 20.47 31.79 16.53 27.83 0 28.78 0 33.94"/>
  <polygon fill="#fff" points="8.84 20.03 0 19.81 0 25.21 13.63 24.88 8.84 20.03"/>
  <polygon fill="#fff" points="9.9 16.82 25.68 17.72 25.68 13.76 4.96 11.59 9.9 16.82"/>
  <polygon fill="#fff" points="0 11.08 0 16.24 5.41 16.55 0 11.08"/>
  <path fill="#fff" d="M26.78,34.16a1.58,1.58,0,0,0,1.09-1.66v-20a1.57,1.57,0,0,0-1.09-1.66L0,7V3.68C3,1.51,9.44,0,16.88,0S30.73,1.51,33.76,3.68V41.34c-3,2.17-9.44,3.68-16.88,3.68S3,43.51,0,41.34V38l26.78-3.81"/>
</svg>
